<svg width="680" height="474" viewBox="0 0 680 474" fill="none" xmlns="http://www.w3.org/2000/svg">
<g clip-path="url(#clip0_11_19)">
<path d="M142.145 19.5774L145.116 264.656L273.479 327.183L270.508 82.1048L142.145 19.5774Z" fill="#F2F2F2"/>
<path d="M103.138 0L7.22141 196.909L137.366 260.305L134.396 15.2261L103.138 0Z" fill="#F2F2F2"/>
<path d="M680 276.624L420.942 150.434L423.913 395.512L584.083 473.533L680 276.624Z" fill="#F2F2F2"/>
<path d="M282.113 82.105L285.083 327.183L413.447 389.71L410.477 144.632L282.113 82.105Z" fill="#F2F2F2"/>
<path d="M326.729 277.734L323.103 358.963C323.103 358.963 332.531 435.84 330.355 438.016C328.18 440.192 322.377 444.543 326.729 449.62C331.081 454.697 347.036 458.323 347.762 455.422C348.487 452.521 349.937 369.842 349.937 369.842L355.014 271.932L326.729 277.734Z" fill="#2F2E41"/>
<path opacity="0.2" d="M326.729 277.734L323.103 358.963C323.103 358.963 332.531 435.84 330.355 438.016C328.18 440.192 322.377 444.543 326.729 449.62C331.081 454.697 347.036 458.323 347.762 455.422C348.487 452.521 349.937 369.842 349.937 369.842L355.014 271.932L326.729 277.734Z" fill="black"/>
<path d="M330.355 448.169C330.355 448.169 312.224 461.949 310.048 461.949C307.872 461.949 288.29 468.477 302.07 471.378C315.85 474.279 349.212 472.828 349.937 468.477C350.662 464.125 347.761 450.919 347.761 450.919L330.355 448.169Z" fill="#2F2E41"/>
<path opacity="0.2" d="M330.355 448.169C330.355 448.169 312.224 461.949 310.048 461.949C307.872 461.949 288.29 468.477 302.07 471.378C315.85 474.279 349.212 472.828 349.937 468.477C350.662 464.125 347.761 450.919 347.761 450.919L330.355 448.169Z" fill="black"/>
<path d="M285.389 216.812C285.389 216.812 277.411 219.713 277.411 221.889C277.411 224.065 270.159 251.624 268.708 253.075C267.258 254.525 266.533 261.053 266.533 261.053C266.533 261.053 259.28 277.734 260.731 277.734C262.181 277.734 274.51 274.833 275.236 277.734C275.961 280.635 281.763 259.602 281.763 259.602L294.092 234.943L285.389 216.812Z" fill="black"/>
<path d="M260.73 280.635C260.73 280.635 262.906 296.591 268.708 298.041C274.51 299.492 268.708 277.734 268.708 277.734L260.73 280.635Z" fill="#FFB8B8"/>
<path d="M279.587 208.109C279.587 208.109 283.939 217.537 286.114 222.614C288.29 227.691 308.598 209.56 308.598 209.56C308.598 209.56 297.719 201.582 297.719 197.955C297.719 194.329 279.587 208.109 279.587 208.109Z" fill="#FFB8B8"/>
<path d="M70.3785 443.858C75.2424 461.838 91.9021 472.973 91.9021 472.973C91.9021 472.973 100.676 454.958 95.8121 436.978C90.9483 418.998 74.2886 407.863 74.2886 407.863C74.2886 407.863 65.5147 425.879 70.3785 443.858Z" fill="#3F3D56"/>
<path d="M77.5256 439.994C90.872 452.986 92.5021 472.958 92.5021 472.958C92.5021 472.958 72.4935 471.866 59.1471 458.874C45.8006 445.881 44.1705 425.909 44.1705 425.909C44.1705 425.909 64.1791 427.002 77.5256 439.994Z" fill="black"/>
<path d="M243.324 473.553C230.271 473.553 217.511 469.683 206.657 462.431C195.804 455.179 187.345 444.871 182.35 432.812C177.354 420.752 176.047 407.482 178.594 394.679C181.14 381.877 187.426 370.117 196.656 360.887C205.886 351.657 217.646 345.371 230.449 342.825C243.251 340.278 256.521 341.585 268.581 346.58C280.64 351.576 290.948 360.035 298.2 370.888C305.452 381.742 309.323 394.502 309.323 407.555C309.303 425.053 302.343 441.828 289.97 454.201C277.598 466.574 260.822 473.534 243.324 473.553ZM243.324 343.007C230.558 343.007 218.078 346.793 207.463 353.885C196.848 360.978 188.575 371.059 183.69 382.854C178.804 394.648 177.526 407.627 180.017 420.148C182.507 432.669 188.655 444.17 197.682 453.197C206.709 462.224 218.21 468.372 230.732 470.863C243.253 473.353 256.231 472.075 268.026 467.19C279.82 462.304 289.901 454.031 296.994 443.416C304.087 432.801 307.872 420.321 307.872 407.555C307.853 390.442 301.046 374.035 288.945 361.934C276.844 349.833 260.438 343.026 243.324 343.007Z" fill="#2F2E41"/>
<path d="M446.397 473.553C433.343 473.553 420.583 469.683 409.73 462.431C398.876 455.179 390.417 444.871 385.422 432.812C380.427 420.752 379.12 407.482 381.666 394.679C384.213 381.877 390.499 370.117 399.729 360.887C408.959 351.657 420.719 345.371 433.521 342.825C446.323 340.278 459.594 341.585 471.653 346.58C483.713 351.576 494.02 360.035 501.272 370.888C508.524 381.742 512.395 394.502 512.395 407.555C512.375 425.053 505.416 441.828 493.043 454.201C480.67 466.574 463.894 473.534 446.397 473.553ZM446.397 343.007C433.63 343.007 421.151 346.793 410.536 353.885C399.921 360.978 391.648 371.059 386.762 382.854C381.877 394.648 380.598 407.627 383.089 420.148C385.58 432.669 391.727 444.17 400.754 453.197C409.781 462.224 421.283 468.372 433.804 470.863C446.325 473.353 459.303 472.075 471.098 467.19C482.893 462.304 492.974 454.031 500.066 443.416C507.159 432.801 510.945 420.321 510.945 407.555C510.925 390.442 504.119 374.035 492.018 361.934C479.917 349.833 463.51 343.026 446.397 343.007Z" fill="#2F2E41"/>
<path d="M243.324 411.907C245.728 411.907 247.676 409.958 247.676 407.555C247.676 405.152 245.728 403.204 243.324 403.204C240.921 403.204 238.973 405.152 238.973 407.555C238.973 409.958 240.921 411.907 243.324 411.907Z" fill="#2F2E41"/>
<path d="M447.847 411.907C450.25 411.907 452.199 409.958 452.199 407.555C452.199 405.152 450.25 403.204 447.847 403.204C445.444 403.204 443.496 405.152 443.496 407.555C443.496 409.958 445.444 411.907 447.847 411.907Z" fill="#2F2E41"/>
<path d="M249.794 401.312L248.459 400.743L286.365 311.811L393.855 314.004L394.063 314.331L447.007 397.01L445.786 397.793L393.05 315.439L287.315 313.281L249.794 401.312Z" fill="#2F2E41"/>
<path d="M362.72 417.842L390.579 319.601L391.975 319.996L364.714 416.125L437.602 406.835L437.785 408.275L362.72 417.842Z" fill="#2F2E41"/>
<path d="M283.731 333.796L282.696 334.812L357.397 410.964L358.433 409.948L283.731 333.796Z" fill="#2F2E41"/>
<path d="M397.826 296.399L393.482 312.357L394.881 312.738L399.226 296.78L397.826 296.399Z" fill="#2F2E41"/>
<path d="M288.998 307.63L287.582 307.309L291.008 292.239H278.862V282.811H280.313V290.789H292.825L288.998 307.63Z" fill="#2F2E41"/>
<path d="M371.695 282.085C371.695 282.085 371.695 277.734 381.123 279.91C390.552 282.085 419.562 287.887 421.738 287.162C423.914 286.437 423.188 291.514 413.76 293.689C404.332 295.865 393.453 290.788 391.277 289.338C389.101 287.887 371.695 282.085 371.695 282.085Z" fill="#2F2E41"/>
<path d="M345.586 411.906H326.729V419.159H345.586V411.906Z" fill="black"/>
<path d="M363.717 431.489C360.848 431.489 358.044 430.638 355.659 429.044C353.273 427.45 351.414 425.185 350.316 422.534C349.218 419.884 348.931 416.967 349.491 414.154C350.05 411.34 351.432 408.755 353.461 406.727C355.489 404.698 358.074 403.317 360.887 402.757C363.701 402.197 366.618 402.485 369.268 403.582C371.919 404.68 374.184 406.539 375.778 408.925C377.372 411.31 378.222 414.115 378.222 416.983C378.218 420.829 376.688 424.516 373.969 427.235C371.25 429.955 367.563 431.484 363.717 431.489ZM363.717 403.929C361.135 403.929 358.611 404.694 356.464 406.129C354.318 407.563 352.644 409.602 351.656 411.988C350.668 414.373 350.41 416.998 350.913 419.53C351.417 422.063 352.66 424.389 354.486 426.214C356.312 428.04 358.638 429.284 361.17 429.787C363.703 430.291 366.328 430.032 368.713 429.044C371.098 428.056 373.137 426.383 374.572 424.236C376.006 422.089 376.772 419.565 376.772 416.983C376.768 413.522 375.391 410.204 372.944 407.757C370.496 405.309 367.178 403.933 363.717 403.929Z" fill="#2F2E41"/>
<path d="M286.114 215.362C295.728 215.362 303.521 207.569 303.521 197.956C303.521 188.342 295.728 180.549 286.114 180.549C276.501 180.549 268.708 188.342 268.708 197.956C268.708 207.569 276.501 215.362 286.114 215.362Z" fill="#FFB8B8"/>
<path d="M341.234 279.184C341.234 279.184 291.191 308.195 291.917 317.623C292.642 327.051 330.355 378.545 330.355 378.545C330.355 378.545 333.256 393.775 336.157 393.775C339.058 393.775 357.19 400.303 357.915 395.951C358.64 391.599 352.113 386.523 352.838 383.622C353.564 380.721 320.927 327.777 320.927 327.777C320.927 327.777 390.775 301.667 376.158 279.184C361.541 256.701 341.234 279.184 341.234 279.184Z" fill="#2F2E41"/>
<path d="M342.685 390.874C342.685 390.874 333.982 393.05 332.531 395.951C331.081 398.852 305.696 408.28 312.949 410.456C320.202 412.632 362.267 413.357 363.717 411.907C365.168 410.456 363.717 393.621 357.915 393.698C352.113 393.775 345.586 395.951 342.685 390.874Z" fill="#2F2E41"/>
<path d="M286.114 224.79L302.433 204.845C302.433 204.845 320.927 199.406 328.905 210.285C336.883 221.164 358.64 247.998 365.893 253.8C373.146 259.602 383.299 282.085 379.673 282.811C376.047 283.536 355.739 274.833 347.761 280.635C339.784 286.437 324.553 287.162 323.828 284.261C323.103 281.36 279.587 232.768 279.587 226.241C279.587 219.713 284.224 218.313 284.224 218.313L286.114 224.79Z" fill="black"/>
<path d="M294.879 282.451L272.998 274.715C271.865 274.315 270.622 274.909 270.222 276.042C269.821 277.175 270.415 278.418 271.548 278.818L293.429 286.554C294.562 286.955 295.805 286.361 296.205 285.228C296.606 284.095 296.012 282.852 294.879 282.451Z" fill="#2F2E41"/>
<path d="M245.5 273.382C245.5 273.382 220.116 280.635 222.292 288.613C224.468 296.591 247.676 279.184 247.676 279.184L245.5 273.382Z" fill="#FFB8B8"/>
<path d="M311.499 210.285C311.499 210.285 301.345 218.988 299.169 229.141C296.993 239.295 286.114 257.427 286.114 257.427L241.874 271.932C241.874 271.932 238.973 285.712 243.324 285.712C247.676 285.712 296.268 275.558 297.719 273.382C299.169 271.206 330.355 229.867 330.355 229.867C330.355 229.867 333.256 207.384 311.499 210.285Z" fill="black"/>
<path d="M275.304 177.809C274.875 178.178 274.361 178.436 273.809 178.559C273.531 178.608 273.246 178.546 273.014 178.386C272.782 178.225 272.624 177.98 272.572 177.703C272.253 178.59 271.659 179.352 270.876 179.878C270.046 180.311 268.762 179.948 268.642 179.019C268.521 179.725 268.209 180.383 267.74 180.924C267.495 181.182 267.159 181.334 266.803 181.346C266.447 181.358 266.101 181.229 265.84 180.987C266.204 182.975 265.979 185.019 266.094 187.036C266.208 189.054 266.746 191.192 268.27 192.519C270.493 194.453 273.835 193.976 276.759 193.609C277.201 193.517 277.66 193.542 278.089 193.682C279.184 194.149 279.135 195.673 279.149 196.863C279.239 198.951 280.065 200.939 281.482 202.475C282.898 204.012 284.814 204.996 286.887 205.254C288.048 205.434 289.232 205.144 290.18 204.451C291.01 203.747 291.434 202.6 292.385 202.072C293.933 201.212 295.809 202.466 296.941 203.827C298.072 205.189 299.187 206.864 300.94 207.113C303.258 207.443 305.023 205.08 305.889 202.905C307.084 199.857 307.657 196.6 307.573 193.326C307.489 190.053 306.751 186.829 305.402 183.846C300.562 173.295 284.028 171.627 275.304 177.809Z" fill="#2F2E41"/>
<path d="M581.577 473.524L580.288 472.858C597.028 440.494 588.076 398.465 577.62 368.905C570.519 349.037 561.463 329.924 550.584 311.846L551.81 311.071C562.745 329.241 571.849 348.452 578.987 368.421C589.54 398.251 598.554 440.7 581.577 473.524Z" fill="#2F2E41"/>
<path d="M593.992 311.331L584.582 362.827L586.008 363.088L595.418 311.591L593.992 311.331Z" fill="#2F2E41"/>
<path d="M531.421 355.205L530.358 356.193L578.95 408.412L580.013 407.424L531.421 355.205Z" fill="#2F2E41"/>
<path d="M618.777 412.565L594.13 446.661L595.306 447.511L619.953 413.415L618.777 412.565Z" fill="#2F2E41"/>
<path d="M598.338 297.679C602.344 297.679 605.591 294.431 605.591 290.426C605.591 286.42 602.344 283.173 598.338 283.173C594.333 283.173 591.086 286.42 591.086 290.426C591.086 294.431 594.333 297.679 598.338 297.679Z" fill="black"/>
<path d="M519.285 353.523C523.291 353.523 526.538 350.276 526.538 346.271C526.538 342.265 523.291 339.018 519.285 339.018C515.28 339.018 512.033 342.265 512.033 346.271C512.033 350.276 515.28 353.523 519.285 353.523Z" fill="#3F3D56"/>
<path d="M551.197 360.776C555.202 360.776 558.449 357.529 558.449 353.523C558.449 349.518 555.202 346.271 551.197 346.271C547.191 346.271 543.944 349.518 543.944 353.523C543.944 357.529 547.191 360.776 551.197 360.776Z" fill="#3F3D56"/>
<path d="M536.691 389.061C540.697 389.061 543.944 385.814 543.944 381.808C543.944 377.803 540.697 374.556 536.691 374.556C532.686 374.556 529.439 377.803 529.439 381.808C529.439 385.814 532.686 389.061 536.691 389.061Z" fill="black"/>
<path d="M627.349 407.192C631.354 407.192 634.601 403.945 634.601 399.94C634.601 395.934 631.354 392.687 627.349 392.687C623.343 392.687 620.096 395.934 620.096 399.94C620.096 403.945 623.343 407.192 627.349 407.192Z" fill="#3F3D56"/>
<path d="M603.415 415.17C607.421 415.17 610.668 411.923 610.668 407.918C610.668 403.912 607.421 400.665 603.415 400.665C599.41 400.665 596.163 403.912 596.163 407.918C596.163 411.923 599.41 415.17 603.415 415.17Z" fill="#3F3D56"/>
<path d="M620.096 438.379C624.102 438.379 627.349 435.132 627.349 431.126C627.349 427.121 624.102 423.874 620.096 423.874C616.091 423.874 612.844 427.121 612.844 431.126C612.844 435.132 616.091 438.379 620.096 438.379Z" fill="#3F3D56"/>
<path d="M543.944 306.382C547.949 306.382 551.197 303.135 551.197 299.129C551.197 295.124 547.949 291.876 543.944 291.876C539.938 291.876 536.691 295.124 536.691 299.129C536.691 303.135 539.938 306.382 543.944 306.382Z" fill="#3F3D56"/>
<path d="M654.909 472.466H0V473.916H654.909V472.466Z" fill="#2F2E41"/>
<path d="M112.368 322.284L50.8151 286.747L15.2774 348.3L76.8305 383.837L112.368 322.284Z" fill="#F2F2F2"/>
<path d="M78.3279 396.214C75.1722 396.214 72.0873 395.278 69.4634 393.525C66.8395 391.771 64.7945 389.279 63.5868 386.364C62.3792 383.448 62.0632 380.24 62.6788 377.145C63.2945 374.05 64.8141 371.207 67.0456 368.976C69.277 366.744 72.1201 365.224 75.2152 364.609C78.3103 363.993 81.5184 364.309 84.4339 365.517C87.3494 366.724 89.8414 368.77 91.5946 371.393C93.3479 374.017 94.2836 377.102 94.2836 380.258C94.2789 384.488 92.5963 388.544 89.605 391.535C86.6138 394.526 82.5582 396.209 78.3279 396.214ZM78.3279 365.753C75.4591 365.753 72.6547 366.603 70.2693 368.197C67.8839 369.791 66.0248 372.057 64.9269 374.707C63.8291 377.358 63.5418 380.274 64.1015 383.088C64.6612 385.901 66.0427 388.486 68.0712 390.515C70.0998 392.543 72.6844 393.925 75.4981 394.484C78.3119 395.044 81.2284 394.757 83.8788 393.659C86.5293 392.561 88.7947 390.702 90.3886 388.317C91.9824 385.931 92.8331 383.127 92.8331 380.258C92.8288 376.412 91.2992 372.725 88.5799 370.006C85.8606 367.287 82.1736 365.757 78.3279 365.753Z" fill="#3F3D56"/>
</g>
<defs>
<clipPath id="clip0_11_19">
<rect width="680" height="473.916" fill="white"/>
</clipPath>
</defs>
</svg>
