<svg width="37" height="38" viewBox="0 0 37 38" fill="none" xmlns="http://www.w3.org/2000/svg">
<path d="M27.0057 19.5922C26.9912 17.1279 28.1077 15.2707 30.3624 13.9013C29.1014 12.0946 27.1936 11.101 24.6787 10.9095C22.2976 10.7216 19.6924 12.297 18.7385 12.297C17.7304 12.297 15.4251 10.9745 13.6112 10.9745C9.86787 11.0323 5.88965 13.9591 5.88965 19.9138C5.88965 21.6734 6.21123 23.4909 6.85439 25.3626C7.71436 27.8269 10.8146 33.8646 14.0484 33.7671C15.7395 33.7273 16.9354 32.5675 19.1359 32.5675C21.2714 32.5675 22.3771 33.7671 24.2632 33.7671C27.526 33.7201 30.3299 28.2315 31.1465 25.7601C26.7708 23.6969 27.0057 19.7187 27.0057 19.5922ZM23.2081 8.57168C25.04 6.39648 24.8738 4.41641 24.8196 3.70459C23.2009 3.79854 21.3292 4.80664 20.2633 6.046C19.089 7.37568 18.3988 9.01973 18.547 10.8733C20.2958 11.007 21.8929 10.1073 23.2081 8.57168Z" fill="black" fill-opacity="0.74"/>
</svg>
