<svg width="32" height="33" viewBox="0 0 32 33" fill="none" xmlns="http://www.w3.org/2000/svg">
<g clip-path="url(#clip0_11_10)">
<path d="M15.995 24.5899C14.193 22.3299 13.136 20.3499 12.781 18.6519C12.432 17.2819 12.567 16.1879 13.172 15.3659C13.807 14.4179 14.75 13.9599 15.995 13.9599C17.24 13.9599 18.188 14.4179 18.823 15.3769C19.417 16.1899 19.568 17.2829 19.203 18.6629C18.812 20.3919 17.755 22.3709 15.989 24.6009L15.995 24.5899ZM28.792 26.1109C28.547 27.7719 27.417 29.1469 25.86 29.8189C22.86 31.1259 19.886 29.0429 17.344 26.2149C21.547 20.9489 22.328 16.8499 20.521 14.1989C19.464 12.6779 17.943 11.9389 15.995 11.9389C12.073 11.9389 9.917 15.2569 10.766 19.1109C11.256 21.1999 12.568 23.5689 14.651 26.2199C13.344 27.6629 12.104 28.6939 11.01 29.3289C10.161 29.7869 9.349 30.0689 8.572 30.1359C5.004 30.6669 2.202 27.2089 3.473 23.6359C3.65 23.1719 4.004 22.3289 4.603 21.0209L4.634 20.9479C6.587 16.7139 8.957 11.9009 11.676 6.56286L11.749 6.38586L12.52 4.90186C13.124 3.80286 13.369 3.31286 14.322 2.70886C14.786 2.43286 15.348 2.29186 15.983 2.29186C17.254 2.29186 18.243 3.03186 18.671 3.63086C18.879 3.94886 19.129 4.37586 19.447 4.90186L20.192 6.35486L20.296 6.56286C23.015 11.9019 25.39 16.7039 27.332 20.9479L27.363 20.9839L28.077 22.6089L28.499 23.6299C28.822 24.4429 28.895 25.2549 28.785 26.1039L28.792 26.1109ZM30.417 22.9289C30.172 22.1479 29.745 21.2309 29.219 20.1369V20.0949C26.703 14.7559 24.365 9.95386 22.146 5.64186L22 5.42786C20.417 2.18286 19.286 0.234863 15.995 0.234863C12.745 0.234863 11.365 2.49486 9.953 5.43286L9.844 5.64686C7.62 9.95386 5.287 14.7619 2.776 20.0999V20.1729L2.031 21.7979C1.755 22.4699 1.609 22.8189 1.573 22.9279C-0.229002 27.8759 3.484 32.2199 7.974 32.2199C8.01 32.2199 8.151 32.2199 8.323 32.1889H8.823C11.156 31.9029 13.557 30.4179 15.995 27.7669C18.433 30.4179 20.844 31.9019 23.172 32.1889H23.667C23.844 32.2199 23.985 32.2199 24.021 32.2199C28.511 32.2249 32.219 27.8759 30.417 22.9279V22.9289Z" fill="black" fill-opacity="0.74"/>
</g>
<defs>
<clipPath id="clip0_11_10">
<rect width="32" height="32" fill="white" transform="translate(0 0.23584)"/>
</clipPath>
</defs>
</svg>
