<svg width="32" height="33" viewBox="0 0 32 33" fill="none" xmlns="http://www.w3.org/2000/svg">
<g clip-path="url(#clip0_11_12)">
<path d="M15.958 0.245853C7.744 0.240853 0.863997 6.46485 0.0469971 14.6369H11.162V12.2359C11.1628 12.0247 11.247 11.8225 11.3963 11.6732C11.5456 11.5239 11.7479 11.4396 11.959 11.4389H19.959C20.402 11.4389 20.756 11.7979 20.756 12.2409V20.2359C20.756 20.4472 20.672 20.65 20.5226 20.7994C20.3731 20.9489 20.1704 21.0329 19.959 21.0329H11.959C11.7476 21.0329 11.5449 20.9489 11.3954 20.7994C11.246 20.65 11.162 20.4472 11.162 20.2359V17.8349H0.0469971C0.931997 26.6269 8.771 33.0329 17.557 32.1479C26.349 31.2679 32.755 23.4239 31.87 14.6379C31.052 6.46585 24.172 0.246853 15.959 0.246853L15.958 0.245853Z" fill="black" fill-opacity="0.74"/>
</g>
<defs>
<clipPath id="clip0_11_12">
<rect width="32" height="32" fill="white" transform="translate(0 0.23584)"/>
</clipPath>
</defs>
</svg>
