<svg width="110" height="21" viewBox="0 0 110 21" fill="none" xmlns="http://www.w3.org/2000/svg">
<path d="M13.246 15.1043C12.2747 16.0545 11.3562 16.8516 10.4905 17.4956C9.63535 18.1396 8.81715 18.6569 8.0359 19.0475C7.25465 19.4381 6.50507 19.7179 5.78716 19.8868C5.07981 20.0557 4.3883 20.1402 3.71263 20.1402C3.42758 20.1402 3.11085 20.0346 2.76246 19.8235C2.41406 19.6123 2.09206 19.3537 1.79645 19.0475C1.49029 18.7519 1.23691 18.4405 1.03632 18.1132C0.835726 17.7859 0.735431 17.5061 0.735431 17.2739C0.735431 16.4082 0.856841 15.6163 1.09966 14.8984C1.33193 14.17 1.64337 13.5154 2.03399 12.9348C2.42462 12.3541 2.86803 11.8421 3.36423 11.3986C3.87099 10.9552 4.39358 10.5857 4.93201 10.2901C5.481 9.99451 6.0247 9.7728 6.56313 9.625C7.10156 9.4772 7.59776 9.40329 8.05173 9.40329C8.37901 9.40329 8.70101 9.49831 9.01774 9.68834C9.34502 9.87838 9.64063 10.1106 9.90456 10.3851C10.1685 10.6596 10.3796 10.95 10.538 11.2561C10.7069 11.5517 10.7914 11.8104 10.7914 12.0321C10.7914 12.391 10.6383 12.7606 10.3321 13.1406C10.0365 13.5101 9.61423 13.8902 9.06525 14.2808C8.51626 14.6715 7.85642 15.0726 7.08573 15.4844C6.31503 15.8856 5.46516 16.292 4.53611 16.7038C4.50443 16.9571 4.4886 17.2052 4.4886 17.4481C4.4886 17.7753 4.55722 17.997 4.69447 18.1132C4.84227 18.2293 5.11149 18.2874 5.50211 18.2874C6.1989 18.2874 6.85346 18.1712 7.46579 17.939C8.08868 17.7067 8.68518 17.4058 9.25528 17.0363C9.82538 16.6668 10.3744 16.2445 10.9022 15.7694C11.4301 15.2943 11.9527 14.814 12.47 14.3283L13.246 15.1043ZM7.67166 11.1453C7.46052 11.1453 7.22825 11.2614 6.97487 11.4937C6.7215 11.7154 6.46812 12.011 6.21474 12.3805C5.96136 12.75 5.71854 13.1776 5.48628 13.6632C5.25401 14.1383 5.05342 14.6345 4.8845 15.1518C5.27513 14.8984 5.65519 14.6292 6.0247 14.3442C6.40477 14.0591 6.74261 13.7635 7.03822 13.4573C7.33383 13.1406 7.57137 12.8186 7.75084 12.4913C7.93032 12.1641 8.02006 11.8368 8.02006 11.5095C8.02006 11.4145 7.98839 11.33 7.92504 11.2561C7.87226 11.1822 7.7878 11.1453 7.67166 11.1453ZM20.4989 17.6698C20.5306 17.7331 20.5781 17.8176 20.6415 17.9231C20.7048 18.0182 20.8421 18.0657 21.0532 18.0657C21.1693 18.0657 21.3488 17.9918 21.5916 17.844C21.8345 17.6856 22.1142 17.485 22.431 17.2422C22.7477 16.9994 23.0802 16.7354 23.4286 16.4504C23.777 16.1548 24.1096 15.8697 24.4263 15.5952C24.743 15.3102 25.0281 15.0568 25.2815 14.8351C25.5348 14.6028 25.7249 14.4339 25.8516 14.3283C25.9466 14.4234 26.0574 14.5448 26.1841 14.6926C26.3214 14.8404 26.4481 14.9776 26.5642 15.1043C26.3319 15.3366 26.0363 15.6216 25.6774 15.9595C25.329 16.2973 24.9436 16.6457 24.5213 17.0046C24.099 17.3636 23.6609 17.7226 23.2069 18.0815C22.753 18.4405 22.3148 18.7625 21.8925 19.0475C21.4702 19.3326 21.0743 19.5595 20.7048 19.7285C20.3353 19.9079 20.0291 19.9977 19.7863 19.9977C19.1212 19.9977 18.5405 19.9027 18.0443 19.7126C17.5481 19.5226 17.2525 19.2428 17.1575 18.8733C17.0731 18.5777 16.9886 18.2768 16.9041 17.9707C16.8302 17.6645 16.7616 17.3583 16.6983 17.0522L12.8659 20.2035C12.792 20.2035 12.6864 20.1719 12.5492 20.1085C12.412 20.0452 12.28 19.966 12.1533 19.871C12.016 19.7865 11.8999 19.7021 11.8049 19.6176C11.6993 19.5437 11.6465 19.4909 11.6465 19.4592C11.6465 19.4276 11.6518 19.4012 11.6624 19.3801C11.6729 19.359 11.6888 19.3378 11.7099 19.3167L16.3657 15.4052C16.2179 14.6556 16.0912 13.9852 15.9856 13.394C15.8906 12.8028 15.8062 12.3699 15.7323 12.0954C15.6584 12.2116 15.5317 12.3963 15.3522 12.6497C15.1833 12.9031 14.9774 13.1881 14.7346 13.5049C14.4918 13.8216 14.212 14.1541 13.8953 14.5025C13.5891 14.8404 13.2618 15.1518 12.9134 15.4369L12.1533 14.6609C12.8712 13.9324 13.4466 13.2515 13.8794 12.618C14.3228 11.974 14.6712 11.4198 14.9246 10.9552C15.1886 10.4802 15.3786 10.1106 15.4947 9.84671C15.6214 9.57221 15.7323 9.43497 15.8273 9.43497C16.0384 9.43497 16.2918 9.45608 16.5874 9.49831C16.8936 9.54054 17.1997 9.59861 17.5059 9.67251C17.8226 9.74641 18.1182 9.83615 18.3927 9.94172C18.6672 10.0367 18.8837 10.1476 19.042 10.2743C19.0737 10.3799 19.1318 10.6649 19.2162 11.1294C19.3007 11.5834 19.401 12.1218 19.5171 12.7447L23.1911 9.65667C23.3072 9.57221 23.4022 9.52998 23.4761 9.52998C23.5395 9.52998 23.6345 9.56693 23.7612 9.64084C23.8984 9.71474 24.0304 9.80448 24.1571 9.91005C24.2943 10.0051 24.4105 10.1001 24.5055 10.1951C24.6111 10.2796 24.6586 10.3376 24.648 10.3693C24.648 10.3904 24.6269 10.4221 24.5847 10.4643C24.553 10.496 24.4052 10.628 24.1413 10.8602C23.8773 11.0819 23.5236 11.3775 23.0802 11.747C22.6474 12.106 22.1459 12.523 21.5758 12.9981C21.0163 13.4626 20.4303 13.9483 19.818 14.455C19.8919 14.8457 19.9605 15.2257 20.0239 15.5952C20.0978 15.9647 20.1611 16.2973 20.2139 16.5929C20.2772 16.878 20.33 17.1208 20.3723 17.3214C20.425 17.5114 20.4673 17.6275 20.4989 17.6698ZM36.7152 15.1043C35.7439 16.0545 34.8254 16.8516 33.9597 17.4956C33.1045 18.1396 32.2863 18.6569 31.5051 19.0475C30.7238 19.4381 29.9742 19.7179 29.2563 19.8868C28.549 20.0557 27.8575 20.1402 27.1818 20.1402C26.8967 20.1402 26.58 20.0346 26.2316 19.8235C25.8832 19.6123 25.5612 19.3537 25.2656 19.0475C24.9595 18.7519 24.7061 18.4405 24.5055 18.1132C24.3049 17.7859 24.2046 17.5061 24.2046 17.2739C24.2046 16.4082 24.326 15.6163 24.5688 14.8984C24.8011 14.17 25.1125 13.5154 25.5032 12.9348C25.8938 12.3541 26.3372 11.8421 26.8334 11.3986C27.3402 10.9552 27.8628 10.5857 28.4012 10.2901C28.9502 9.99451 29.4939 9.7728 30.0323 9.625C30.5707 9.4772 31.0669 9.40329 31.5209 9.40329C31.8482 9.40329 32.1702 9.49831 32.4869 9.68834C32.8142 9.87838 33.1098 10.1106 33.3737 10.3851C33.6377 10.6596 33.8488 10.95 34.0072 11.2561C34.1761 11.5517 34.2606 11.8104 34.2606 12.0321C34.2606 12.391 34.1075 12.7606 33.8013 13.1406C33.5057 13.5101 33.0834 13.8902 32.5344 14.2808C31.9854 14.6715 31.3256 15.0726 30.5549 15.4844C29.7842 15.8856 28.9343 16.292 28.0053 16.7038C27.9736 16.9571 27.9578 17.2052 27.9578 17.4481C27.9578 17.7753 28.0264 17.997 28.1636 18.1132C28.3114 18.2293 28.5807 18.2874 28.9713 18.2874C29.6681 18.2874 30.3226 18.1712 30.935 17.939C31.5579 17.7067 32.1544 17.4058 32.7245 17.0363C33.2946 16.6668 33.8435 16.2445 34.3714 15.7694C34.8993 15.2943 35.4219 14.814 35.9392 14.3283L36.7152 15.1043ZM31.1408 11.1453C30.9297 11.1453 30.6974 11.2614 30.444 11.4937C30.1907 11.7154 29.9373 12.011 29.6839 12.3805C29.4305 12.75 29.1877 13.1776 28.9554 13.6632C28.7232 14.1383 28.5226 14.6345 28.3537 15.1518C28.7443 14.8984 29.1244 14.6292 29.4939 14.3442C29.8739 14.0591 30.2118 13.7635 30.5074 13.4573C30.803 13.1406 31.0405 12.8186 31.22 12.4913C31.3995 12.1641 31.4892 11.8368 31.4892 11.5095C31.4892 11.4145 31.4576 11.33 31.3942 11.2561C31.3414 11.1822 31.257 11.1453 31.1408 11.1453ZM43.1288 12.4438C42.9916 12.8556 42.8174 13.3254 42.6062 13.8533C42.4056 14.3811 42.2103 14.8984 42.0203 15.4052C41.8302 15.912 41.6666 16.3712 41.5294 16.7829C41.4027 17.1947 41.3393 17.4903 41.3393 17.6698C41.3393 17.7331 41.371 17.7648 41.4343 17.7648C41.5505 17.7648 41.7247 17.6962 41.9569 17.5589C42.1892 17.4217 42.4531 17.2422 42.7487 17.0205C43.0549 16.7988 43.3716 16.556 43.6989 16.292C44.0262 16.0281 44.3376 15.7694 44.6332 15.516C44.9394 15.2521 45.2139 15.0146 45.4567 14.8034C45.6995 14.5923 45.8843 14.4339 46.011 14.3283C46.106 14.4234 46.2169 14.5448 46.3435 14.6926C46.4808 14.8404 46.6075 14.9776 46.7236 15.1043C46.4913 15.3366 46.201 15.6216 45.8526 15.9595C45.5042 16.2867 45.1242 16.6246 44.7124 16.973C44.3112 17.3214 43.8889 17.6698 43.4455 18.0182C43.0127 18.3666 42.5851 18.678 42.1628 18.9525C41.7511 19.227 41.3657 19.4487 41.0068 19.6176C40.6478 19.7865 40.3469 19.871 40.1041 19.871C39.9457 19.871 39.7451 19.8129 39.5023 19.6968C39.2595 19.5912 39.0272 19.454 38.8055 19.2851C38.5838 19.1267 38.3938 18.9472 38.2354 18.7466C38.0771 18.546 37.9979 18.3507 37.9979 18.1607C38.1563 17.4533 38.3146 16.8357 38.473 16.3079C38.6313 15.78 38.7791 15.3313 38.9164 14.9618C39.0536 14.5817 39.175 14.2755 39.2806 14.0433C39.3862 13.811 39.4654 13.6368 39.5182 13.5207C39.3915 13.4679 39.2701 13.4098 39.1539 13.3465C39.0378 13.2832 38.9217 13.2198 38.8055 13.1565C38.6366 13.3359 38.4466 13.526 38.2354 13.7266C38.0348 13.9272 37.829 14.1277 37.6178 14.3283C37.4067 14.5289 37.1955 14.7242 36.9844 14.9143C36.7732 15.1043 36.5832 15.2785 36.4143 15.4369L35.6541 14.6609C35.9286 14.397 36.2612 14.0802 36.6518 13.7107C37.0319 13.3307 37.4067 12.9506 37.7762 12.5705C37.5122 12.4122 37.2747 12.2644 37.0636 12.1271C36.8524 11.9793 36.6729 11.8473 36.5251 11.7312C36.3457 11.6045 36.1873 11.4884 36.05 11.3828C35.9867 11.3511 35.955 11.2825 35.955 11.1769C35.955 11.0608 36.0025 10.8972 36.0976 10.686C36.182 10.4643 36.2929 10.2321 36.4301 9.98923C36.5674 9.73585 36.7152 9.48247 36.8735 9.2291C37.0319 8.96516 37.185 8.72762 37.3328 8.51647C37.4806 8.30532 37.6073 8.1364 37.7128 8.00971C37.829 7.87247 37.9029 7.80384 37.9345 7.80384C37.9557 7.80384 38.0243 7.83024 38.1404 7.88302C38.2671 7.93581 38.3991 7.99915 38.5363 8.07306C38.6736 8.1364 38.8003 8.2103 38.9164 8.29476C39.0325 8.37922 39.1064 8.45312 39.1381 8.51647C39.1487 8.56926 39.1592 8.68011 39.1698 8.84903C39.1803 9.01795 39.1909 9.22382 39.2014 9.46664C39.6132 9.67779 40.0355 9.92061 40.4683 10.1951C40.9012 10.459 41.2971 10.7124 41.656 10.9552C42.0783 11.2297 42.4795 11.5095 42.8596 11.7946C42.9968 11.879 43.0813 11.9846 43.113 12.1113C43.1552 12.238 43.1605 12.3488 43.1288 12.4438ZM47.3571 20.1719C47.167 20.1719 46.9506 20.1085 46.7078 19.9818C46.465 19.8657 46.2169 19.7021 45.9635 19.4909C45.7101 19.2903 45.4673 19.0528 45.235 18.7783C44.9922 18.4932 44.7916 18.1976 44.6332 17.8915C44.5699 17.7753 44.5277 17.6434 44.5065 17.4956C44.4854 17.3478 44.4749 17.1577 44.4749 16.9255C44.4749 16.3237 44.5699 15.7219 44.7599 15.1201C44.9394 14.5078 45.1928 13.9272 45.5201 13.3782C45.8473 12.8292 46.2432 12.3171 46.7078 11.8421C47.1617 11.3564 47.6579 10.9394 48.1964 10.591C48.7348 10.2426 49.3102 9.96812 49.9225 9.76752C50.5348 9.56693 51.1577 9.46664 51.7912 9.46664C51.8862 9.46664 52.0129 9.51943 52.1712 9.625C52.3402 9.72002 52.5196 9.85198 52.7097 10.0209C52.8997 10.1898 53.0897 10.3799 53.2798 10.591C53.4804 10.8022 53.6598 11.0186 53.8182 11.2403C53.9766 11.4514 54.1033 11.6626 54.1983 11.8737C54.3038 12.0743 54.3566 12.2538 54.3566 12.4122C54.3038 12.6128 54.1402 12.8345 53.8657 13.0773C53.5912 13.3095 53.2639 13.5312 52.8839 13.7424C52.5144 13.943 52.1237 14.1119 51.712 14.2492C51.3003 14.3864 50.9413 14.455 50.6351 14.455C50.4557 14.455 50.3659 14.4022 50.3659 14.2967C50.3659 14.1805 50.4451 14.0116 50.6035 13.7899C50.7618 13.5576 50.936 13.3095 51.1261 13.0456C51.3266 12.7711 51.5061 12.5019 51.6645 12.238C51.8228 11.9635 51.902 11.7312 51.902 11.5412C51.902 11.4462 51.8756 11.367 51.8228 11.3036C51.7806 11.2403 51.7173 11.2086 51.6328 11.2086C51.4006 11.2086 51.1577 11.3142 50.9044 11.5253C50.651 11.7365 50.3976 12.0163 50.1442 12.3647C49.8908 12.713 49.648 13.1142 49.4158 13.5682C49.1835 14.0116 48.9776 14.4709 48.7981 14.9459C48.6292 15.421 48.492 15.8961 48.3864 16.3712C48.2808 16.8463 48.228 17.2791 48.228 17.6698C48.228 17.902 48.2967 18.0657 48.4339 18.1607C48.5712 18.2451 48.7823 18.2874 49.0674 18.2874C49.7747 18.2874 50.4557 18.1712 51.1102 17.939C51.7753 17.6962 52.4088 17.39 53.0106 17.0205C53.6229 16.6404 54.2035 16.2181 54.7525 15.7536C55.3015 15.2891 55.8188 14.8245 56.3045 14.36C56.4206 14.4973 56.5631 14.6345 56.7321 14.7717C56.901 14.8984 57.0277 15.0093 57.1121 15.1043C56.4576 15.7905 55.7608 16.4451 55.0218 17.068C54.2933 17.6803 53.5226 18.2187 52.7097 18.6833C51.8968 19.1372 51.0416 19.4962 50.1442 19.7601C49.2574 20.0346 48.3283 20.1719 47.3571 20.1719ZM57.3813 19.871C57.223 19.871 57.0224 19.8129 56.7796 19.6968C56.5367 19.5912 56.3045 19.454 56.0828 19.2851C55.8611 19.1267 55.671 18.9472 55.5127 18.7466C55.3543 18.546 55.2751 18.3507 55.2751 18.1607C55.3807 17.6962 55.5232 17.163 55.7027 16.5612C55.8822 15.9595 56.0775 15.3471 56.2886 14.7242C56.4892 14.1014 56.7057 13.4943 56.9379 12.9031C57.1596 12.3013 57.3602 11.7682 57.5397 11.3036C57.7297 10.8391 57.8934 10.4643 58.0306 10.1793C58.1679 9.89421 58.2576 9.75169 58.2998 9.75169C58.3632 9.75169 58.5215 9.82031 58.7749 9.95756C59.0283 10.0948 59.2922 10.2637 59.5667 10.4643C59.8518 10.6543 60.1052 10.8602 60.3269 11.0819C60.5486 11.2931 60.6594 11.4778 60.6594 11.6362C60.6594 11.6679 60.6541 11.7101 60.6436 11.7629C60.633 11.8051 60.6172 11.8632 60.5961 11.9371C60.5116 12.201 60.4008 12.5125 60.2635 12.8714C60.1368 13.2304 59.9996 13.6052 59.8518 13.9958C59.704 14.3758 59.5562 14.7612 59.4084 15.1518C59.2606 15.5319 59.1286 15.8908 59.0125 16.2287C58.8963 16.5665 58.8013 16.8621 58.7274 17.1155C58.6535 17.3689 58.6166 17.5536 58.6166 17.6698C58.6166 17.7331 58.6482 17.7648 58.7116 17.7648C58.8277 17.7648 59.0019 17.6962 59.2342 17.5589C59.4664 17.4217 59.7304 17.2422 60.026 17.0205C60.3321 16.7988 60.6489 16.556 60.9761 16.292C61.3034 16.0281 61.6149 15.7694 61.9105 15.516C62.2166 15.2521 62.4911 15.0146 62.734 14.8034C62.9768 14.5923 63.1615 14.4339 63.2882 14.3283C63.3832 14.4234 63.4941 14.5448 63.6208 14.6926C63.758 14.8404 63.8847 14.9776 64.0008 15.1043C63.7686 15.3366 63.4783 15.6216 63.1299 15.9595C62.7815 16.2867 62.4014 16.6246 61.9897 16.973C61.5885 17.3214 61.1662 17.6698 60.7228 18.0182C60.2899 18.3666 59.8676 18.678 59.4559 18.9525C59.0441 19.227 58.6588 19.4487 58.2998 19.6176C57.9409 19.7865 57.6347 19.871 57.3813 19.871ZM63.6525 4.92166C63.6419 4.96389 63.5997 5.06947 63.5258 5.23839C63.4624 5.39675 63.3832 5.58678 63.2882 5.80849C63.1932 6.01964 63.0824 6.24662 62.9557 6.48944C62.8395 6.72171 62.7234 6.93813 62.6073 7.13872C62.4911 7.33932 62.3803 7.50823 62.2747 7.64548C62.1691 7.77217 62.0847 7.83551 62.0213 7.83551C61.8313 7.82496 61.599 7.76689 61.3245 7.66132C61.0606 7.55574 60.8019 7.43961 60.5486 7.31292C60.3057 7.17568 60.0946 7.04371 59.9151 6.91702C59.7462 6.79033 59.6617 6.70059 59.6617 6.6478C59.6617 6.4261 59.7251 6.14105 59.8518 5.79265C59.9785 5.4337 60.1263 5.09058 60.2952 4.7633C60.4641 4.42546 60.633 4.13513 60.8019 3.89231C60.9814 3.64949 61.1187 3.52808 61.2137 3.52808C61.4037 3.52808 61.636 3.59143 61.9105 3.71812C62.185 3.83425 62.4489 3.97149 62.7023 4.12986C62.9662 4.28822 63.1879 4.44658 63.3674 4.60494C63.5574 4.75274 63.6525 4.85832 63.6525 4.92166ZM64.6818 19.871C64.5023 19.871 64.2648 19.7865 63.9692 19.6176C63.6841 19.4592 63.4044 19.2587 63.1299 19.0158C62.8554 18.7836 62.6178 18.5408 62.4172 18.2874C62.2166 18.034 62.1163 17.8176 62.1163 17.6381C62.1163 17.3214 62.2061 16.8199 62.3856 16.1337C62.5545 15.4474 62.7815 14.6662 63.0665 13.7899C63.3516 12.9031 63.6736 11.9582 64.0325 10.9552C64.402 9.95228 64.7715 8.97044 65.1411 8.00971H62.9082H62.8923C62.8818 8.00971 62.8765 7.99915 62.8765 7.97804C62.8765 7.9147 62.9029 7.82496 62.9557 7.70883C62.9979 7.58214 63.056 7.45545 63.1299 7.32876C63.1932 7.19151 63.2724 7.0701 63.3674 6.96453C63.4519 6.84839 63.5363 6.77449 63.6208 6.74282L65.6795 6.6478C65.9751 5.9299 66.2549 5.27006 66.5188 4.66828C66.7933 4.05595 67.0361 3.53336 67.2473 3.10051C67.3 2.98437 67.3528 2.86296 67.4056 2.73627C67.469 2.59903 67.5534 2.46706 67.659 2.34037C67.7751 2.20312 67.9229 2.06588 68.1024 1.92863C68.2924 1.78083 68.5458 1.63302 68.8625 1.48522C69.0948 1.36909 69.3746 1.2424 69.7019 1.10515C70.0397 0.967904 70.367 0.841215 70.6837 0.725084C71.011 0.608952 71.3066 0.513935 71.5705 0.440033C71.8345 0.355573 72.0245 0.313344 72.1406 0.313344C72.2462 0.313344 72.299 0.334459 72.299 0.376688V0.408361C72.299 0.418918 72.2884 0.445312 72.2673 0.487541C72.204 0.593116 72.0878 0.825379 71.9189 1.18433C71.75 1.53273 71.5389 1.97614 71.2855 2.51457C71.0427 3.04244 70.7682 3.64949 70.462 4.33573C70.1664 5.0114 69.8602 5.72931 69.5435 6.48944L73.3442 6.34692C73.4498 6.34692 73.4814 6.41026 73.4392 6.53695C73.397 6.66364 73.3178 6.81144 73.2017 6.98036C73.0855 7.14928 72.9483 7.32348 72.7899 7.50296C72.6421 7.68243 72.5154 7.81968 72.4098 7.9147C72.3887 7.93581 72.3465 7.95693 72.2832 7.97804C72.2198 7.99915 72.1406 8.00971 72.0456 8.00971H68.9101C68.53 8.92821 68.1658 9.85726 67.8174 10.7969C67.469 11.7365 67.1575 12.6286 66.883 13.4732C66.6085 14.3178 66.3868 15.0937 66.2179 15.8011C66.0595 16.5084 65.9804 17.0891 65.9804 17.5431C65.9804 17.6064 66.012 17.6381 66.0754 17.6381C66.1915 17.6381 66.3657 17.5747 66.598 17.4481C66.8302 17.3108 67.0889 17.1366 67.3739 16.9255C67.6696 16.7143 67.981 16.4821 68.3083 16.2287C68.6356 15.9753 68.947 15.7272 69.2426 15.4844C69.5382 15.231 69.8022 15.004 70.0344 14.8034C70.2772 14.5923 70.462 14.4339 70.5887 14.3283C70.6837 14.4234 70.7946 14.5448 70.9212 14.6926C71.0585 14.8404 71.1852 14.9776 71.3013 15.1043C71.0691 15.3366 70.7787 15.6216 70.4303 15.9595C70.0819 16.2867 69.7019 16.6246 69.2901 16.973C68.8889 17.3214 68.4666 17.6698 68.0232 18.0182C67.5904 18.3666 67.1628 18.678 66.7405 18.9525C66.3288 19.227 65.9434 19.4487 65.5845 19.6176C65.2255 19.7865 64.9246 19.871 64.6818 19.871ZM71.6022 19.871C71.4438 19.871 71.2432 19.8129 71.0004 19.6968C70.7576 19.5912 70.5253 19.454 70.3036 19.2851C70.0819 19.1267 69.8919 18.9472 69.7335 18.7466C69.5752 18.546 69.496 18.3507 69.496 18.1607C69.6016 17.6962 69.7441 17.163 69.9236 16.5612C70.103 15.9595 70.2984 15.3471 70.5095 14.7242C70.7101 14.1014 70.9265 13.4943 71.1588 12.9031C71.3805 12.3013 71.5811 11.7682 71.7606 11.3036C71.9506 10.8391 72.1142 10.4643 72.2515 10.1793C72.3887 9.89421 72.4785 9.75169 72.5207 9.75169C72.584 9.75169 72.7424 9.82031 72.9958 9.95756C73.2492 10.0948 73.5131 10.2637 73.7876 10.4643C74.0726 10.6543 74.326 10.8602 74.5477 11.0819C74.7694 11.2931 74.8803 11.4778 74.8803 11.6362C74.8803 11.6679 74.875 11.7101 74.8644 11.7629C74.8539 11.8051 74.8381 11.8632 74.8169 11.9371C74.7325 12.201 74.6216 12.5125 74.4844 12.8714C74.3577 13.2304 74.2204 13.6052 74.0726 13.9958C73.9248 14.3758 73.777 14.7612 73.6292 15.1518C73.4814 15.5319 73.3495 15.8908 73.2333 16.2287C73.1172 16.5665 73.0222 16.8621 72.9483 17.1155C72.8744 17.3689 72.8374 17.5536 72.8374 17.6698C72.8374 17.7331 72.8691 17.7648 72.9324 17.7648C73.0486 17.7648 73.2228 17.6962 73.455 17.5589C73.6873 17.4217 73.9512 17.2422 74.2468 17.0205C74.553 16.7988 74.8697 16.556 75.197 16.292C75.5243 16.0281 75.8357 15.7694 76.1313 15.516C76.4375 15.2521 76.712 15.0146 76.9548 14.8034C77.1976 14.5923 77.3824 14.4339 77.5091 14.3283C77.6041 14.4234 77.715 14.5448 77.8416 14.6926C77.9789 14.8404 78.1056 14.9776 78.2217 15.1043C77.9894 15.3366 77.6991 15.6216 77.3507 15.9595C77.0023 16.2867 76.6223 16.6246 76.2105 16.973C75.8093 17.3214 75.387 17.6698 74.9436 18.0182C74.5108 18.3666 74.0885 18.678 73.6767 18.9525C73.265 19.227 72.8796 19.4487 72.5207 19.6176C72.1617 19.7865 71.8556 19.871 71.6022 19.871ZM77.8733 4.92166C77.8628 4.96389 77.8205 5.06947 77.7466 5.23839C77.6833 5.39675 77.6041 5.58678 77.5091 5.80849C77.4141 6.01964 77.3032 6.24662 77.1765 6.48944C77.0604 6.72171 76.9443 6.93813 76.8281 7.13872C76.712 7.33932 76.6011 7.50823 76.4956 7.64548C76.39 7.77217 76.3055 7.83551 76.2422 7.83551C76.0522 7.82496 75.8199 7.76689 75.5454 7.66132C75.2815 7.55574 75.0228 7.43961 74.7694 7.31292C74.5266 7.17568 74.3155 7.04371 74.136 6.91702C73.9671 6.79033 73.8826 6.70059 73.8826 6.6478C73.8826 6.4261 73.9459 6.14105 74.0726 5.79265C74.1993 5.4337 74.3471 5.09058 74.516 4.7633C74.685 4.42546 74.8539 4.13513 75.0228 3.89231C75.2023 3.64949 75.3395 3.52808 75.4345 3.52808C75.6246 3.52808 75.8568 3.59143 76.1313 3.71812C76.4058 3.83425 76.6698 3.97149 76.9231 4.12986C77.1871 4.28822 77.4088 4.44658 77.5883 4.60494C77.7783 4.75274 77.8733 4.85832 77.8733 4.92166ZM85.6172 17.6064C85.6172 17.6698 85.6489 17.7014 85.7122 17.7014C85.8283 17.7014 86.0025 17.6328 86.2348 17.4956C86.4776 17.3583 86.7521 17.1841 87.0583 16.973C87.3645 16.7618 87.6865 16.5243 88.0243 16.2603C88.3621 15.9964 88.6841 15.743 88.9903 15.5002C89.2965 15.2468 89.571 15.0146 89.8138 14.8034C90.0672 14.5923 90.2572 14.4339 90.3839 14.3283C90.4789 14.4234 90.5897 14.5448 90.7164 14.6926C90.8537 14.8404 90.9804 14.9776 91.0965 15.1043C90.8642 15.3366 90.5686 15.6163 90.2097 15.9436C89.8613 16.2709 89.4759 16.614 89.0536 16.973C88.6419 17.3214 88.209 17.6698 87.7551 18.0182C87.3117 18.356 86.8788 18.6622 86.4565 18.9367C86.0342 19.2006 85.6383 19.417 85.2688 19.5859C84.8993 19.7549 84.5931 19.8393 84.3503 19.8393C84.1708 19.8393 83.9702 19.7813 83.7485 19.6651C83.5268 19.5595 83.3157 19.417 83.1151 19.2375C82.925 19.0686 82.7614 18.8786 82.6242 18.6674C82.4975 18.4563 82.4341 18.2557 82.4341 18.0657C82.4341 17.8967 82.4975 17.5747 82.6242 17.0997C82.7509 16.6246 82.9039 16.0703 83.0834 15.4369C82.6083 16.0809 82.1438 16.651 81.6898 17.1472C81.2359 17.6328 80.8188 18.0498 80.4388 18.3982C80.0587 18.7466 79.7261 19.0264 79.4411 19.2375C79.156 19.4592 78.9449 19.6176 78.8077 19.7126C78.7232 19.7654 78.6229 19.8024 78.5068 19.8235C78.3906 19.8552 78.2851 19.871 78.19 19.871C77.9894 19.871 77.7677 19.8076 77.5249 19.681C77.2821 19.5648 77.0604 19.417 76.8598 19.2375C76.6487 19.0581 76.4745 18.8575 76.3372 18.6358C76.1894 18.4141 76.1155 18.2029 76.1155 18.0023C76.1155 17.7701 76.1947 17.3847 76.353 16.8463C76.5009 16.3079 76.7067 15.6639 76.9707 14.9143C77.224 14.1647 77.5249 13.3254 77.8733 12.3963C78.2217 11.4673 78.5965 10.4907 78.9977 9.46664C79.0188 9.41385 79.0346 9.39274 79.0452 9.40329C79.0663 9.40329 79.098 9.40329 79.1402 9.40329C79.3408 9.43497 79.6153 9.51943 79.9637 9.65667C80.3121 9.78336 80.6499 9.92589 80.9772 10.0842C81.315 10.2426 81.6054 10.3957 81.8482 10.5435C82.091 10.6807 82.2124 10.7758 82.2124 10.8285C82.1808 10.9024 82.0963 11.0766 81.959 11.3511C81.8324 11.6256 81.6793 11.9582 81.4998 12.3488C81.3309 12.7289 81.1461 13.1459 80.9455 13.5999C80.7555 14.0433 80.576 14.4709 80.4071 14.8826C80.2487 15.2943 80.1168 15.6691 80.0112 16.007C79.9056 16.3342 79.8528 16.5771 79.8528 16.7354C79.8528 16.7777 79.874 16.7988 79.9162 16.7988C80.0006 16.7988 80.1854 16.6879 80.4704 16.4662C80.7555 16.234 81.1039 15.875 81.5156 15.3894C81.9379 14.9037 82.413 14.2808 82.9409 13.5207C83.4688 12.75 84.0177 11.8262 84.5878 10.7494L85.0313 9.49831C85.0629 9.41385 85.1316 9.37162 85.2371 9.37162C85.311 9.37162 85.4694 9.44552 85.7122 9.59333C85.9656 9.73057 86.2295 9.89421 86.504 10.0842C86.7891 10.2637 87.0424 10.4485 87.2642 10.6385C87.4859 10.818 87.6073 10.9447 87.6284 11.0186C87.6284 11.0503 87.6231 11.1083 87.6125 11.1928C87.602 11.2667 87.5862 11.33 87.565 11.3828C87.4595 11.6679 87.3381 12.0057 87.2008 12.3963C87.0636 12.7764 86.921 13.1776 86.7732 13.5999C86.636 14.0116 86.4987 14.4286 86.3615 14.8509C86.2242 15.2732 86.0976 15.6691 85.9814 16.0386C85.8759 16.3976 85.7861 16.7196 85.7122 17.0046C85.6489 17.2791 85.6172 17.4797 85.6172 17.6064ZM94.6438 11.3511C94.5171 11.6784 94.3904 12.0163 94.2637 12.3647C94.137 12.713 94.0156 13.0667 93.8995 13.4257C94.5646 12.6339 95.1136 12.0004 95.5465 11.5253C95.9899 11.0503 96.3541 10.6807 96.6392 10.4168C96.9348 10.1529 97.1776 9.96812 97.3676 9.86254C97.5576 9.75697 97.7318 9.67779 97.8902 9.625C97.9852 9.625 98.1436 9.67779 98.3653 9.78336C98.5976 9.88894 98.8404 10.0209 99.0938 10.1793C99.3577 10.3271 99.6058 10.4854 99.8381 10.6543C100.07 10.8127 100.234 10.9447 100.329 11.0503C100.413 11.1347 100.424 11.2561 100.361 11.4145C100.234 11.7523 100.107 12.0954 99.9806 12.4438C99.8644 12.7817 99.7483 13.1301 99.6322 13.489C100.34 12.6761 100.931 12.0268 101.406 11.5412C101.881 11.045 102.266 10.6649 102.562 10.401C102.868 10.137 103.106 9.96284 103.274 9.87838C103.443 9.79392 103.575 9.75169 103.67 9.75169C103.808 9.75169 104.014 9.82031 104.288 9.95756C104.563 10.0948 104.837 10.2637 105.111 10.4643C105.397 10.6649 105.639 10.8708 105.84 11.0819C106.051 11.2931 106.157 11.4778 106.157 11.6362C106.157 11.6679 106.151 11.7101 106.141 11.7629C106.13 11.8051 106.114 11.8632 106.093 11.9371C106.009 12.201 105.898 12.5125 105.761 12.8714C105.634 13.2304 105.497 13.6052 105.349 13.9958C105.201 14.3758 105.053 14.7612 104.906 15.1518C104.758 15.5319 104.626 15.8908 104.51 16.2287C104.394 16.5665 104.299 16.8621 104.225 17.1155C104.151 17.3689 104.114 17.5536 104.114 17.6698C104.114 17.7331 104.145 17.7648 104.209 17.7648C104.325 17.7648 104.499 17.6962 104.731 17.5589C104.964 17.4217 105.228 17.2422 105.523 17.0205C105.829 16.7988 106.146 16.556 106.473 16.292C106.801 16.0281 107.112 15.7694 107.408 15.516C107.714 15.2521 107.988 15.0146 108.231 14.8034C108.474 14.5923 108.659 14.4339 108.785 14.3283C108.88 14.4234 108.991 14.5448 109.118 14.6926C109.255 14.8404 109.382 14.9776 109.498 15.1043C109.266 15.3366 108.976 15.6216 108.627 15.9595C108.279 16.2867 107.899 16.6246 107.487 16.973C107.086 17.3214 106.663 17.6698 106.22 18.0182C105.787 18.3666 105.365 18.678 104.953 18.9525C104.541 19.227 104.156 19.4487 103.797 19.6176C103.438 19.7865 103.132 19.871 102.879 19.871C102.72 19.871 102.52 19.8129 102.277 19.6968C102.034 19.5912 101.802 19.454 101.58 19.2851C101.358 19.1267 101.168 18.9472 101.01 18.7466C100.852 18.546 100.772 18.3507 100.772 18.1607C100.867 17.7278 100.994 17.2369 101.152 16.6879C101.311 16.1389 101.485 15.5794 101.675 15.0093C101.865 14.4286 102.06 13.8585 102.261 13.299C102.472 12.7394 102.673 12.2221 102.863 11.747C102.652 12.0004 102.372 12.3066 102.023 12.6655C101.675 13.0245 101.279 13.4996 100.836 14.0908C100.392 14.6715 99.9172 15.3946 99.4105 16.2603C98.9037 17.1261 98.397 18.1818 97.8902 19.4276C97.8269 19.6387 97.6738 19.7443 97.431 19.7443C97.3043 19.7443 97.1459 19.7179 96.9559 19.6651C96.7764 19.6229 96.5811 19.549 96.3699 19.4434C96.1693 19.3484 95.9582 19.227 95.7365 19.0792C95.5253 18.9314 95.3248 18.7519 95.1347 18.5408C95.1347 18.4668 95.1717 18.2451 95.2456 17.8756C95.33 17.4956 95.4462 17.0152 95.594 16.4345C95.7523 15.8539 95.9371 15.2046 96.1482 14.4867C96.3594 13.7688 96.5969 13.0298 96.8609 12.2696C96.6075 12.5441 96.2908 12.8978 95.9107 13.3307C95.5306 13.753 95.1242 14.2703 94.6913 14.8826C94.2585 15.4844 93.815 16.1864 93.3611 16.9888C92.9071 17.7912 92.4795 18.6991 92.0783 19.7126C92.015 19.9343 91.8672 20.0452 91.6349 20.0452C91.4555 20.0452 91.2549 19.9924 91.0332 19.8868C90.8009 19.7918 90.5686 19.6598 90.3364 19.4909C90.0935 19.3326 89.856 19.1531 89.6237 18.9525C89.3809 18.7519 89.1645 18.5513 88.9745 18.3507C88.9745 18.2874 89.0061 18.1079 89.0695 17.8123C89.1223 17.5167 89.2014 17.1472 89.307 16.7038C89.4126 16.2498 89.5446 15.7378 89.7029 15.1677C89.8507 14.587 90.0249 13.9799 90.2255 13.3465C90.4261 12.713 90.6478 12.069 90.8906 11.4145C91.1335 10.7494 91.3921 10.1106 91.6666 9.49831C92.11 9.70946 92.6009 9.96812 93.1394 10.2743C93.6883 10.5804 94.1898 10.9394 94.6438 11.3511Z" fill="black"/>
</svg>
